<svg xmlns="http://www.w3.org/2000/svg" xmlns:xlink="http://www.w3.org/1999/xlink" width="1280" zoomAndPan="magnify" viewBox="0 0 960 540.000001" height="720" preserveAspectRatio="xMidYMid meet" version="1.0"><defs><clipPath id="fcc8b65146"><path d="M 249.304688 506.667969 L 446.941406 506.667969 L 446.941406 539 L 249.304688 539 Z M 249.304688 506.667969 " clip-rule="nonzero"/></clipPath><clipPath id="f8e12c374a"><path d="M 81 4 L 85.507812 4 L 85.507812 9 L 81 9 Z M 81 4 " clip-rule="nonzero"/></clipPath><clipPath id="7a03e35fb1"><path d="M 81 18 L 85.507812 18 L 85.507812 22 L 81 22 Z M 81 18 " clip-rule="nonzero"/></clipPath><clipPath id="072a70f1e7"><path d="M 54.789062 22.007812 L 914.195312 22.007812 L 914.195312 114.835938 L 54.789062 114.835938 Z M 54.789062 22.007812 " clip-rule="nonzero"/></clipPath></defs><g clip-path="url(#fcc8b65146)"><path fill="#ffffff" d="M 253.585938 508.847656 C 253.585938 509.117188 253.535156 509.378906 253.429688 509.625 C 253.328125 509.875 253.179688 510.09375 252.992188 510.285156 C 252.800781 510.472656 252.582031 510.621094 252.332031 510.722656 C 252.085938 510.824219 251.824219 510.875 251.554688 510.875 C 251.289062 510.875 251.027344 510.824219 250.78125 510.722656 C 250.53125 510.617188 250.3125 510.472656 250.125 510.28125 C 249.933594 510.089844 249.785156 509.871094 249.683594 509.621094 C 249.582031 509.375 249.53125 509.113281 249.53125 508.847656 C 249.53125 508.578125 249.582031 508.320312 249.6875 508.070312 C 249.789062 507.820312 249.9375 507.601562 250.128906 507.414062 C 250.320312 507.222656 250.539062 507.078125 250.785156 506.976562 C 251.035156 506.871094 251.292969 506.820312 251.5625 506.824219 C 251.832031 506.824219 252.089844 506.875 252.335938 506.976562 C 252.585938 507.082031 252.804688 507.226562 252.992188 507.417969 C 253.183594 507.609375 253.328125 507.828125 253.429688 508.074219 C 253.535156 508.324219 253.585938 508.582031 253.585938 508.847656 Z M 273.003906 506.824219 C 272.738281 506.820312 272.476562 506.871094 272.230469 506.976562 C 271.980469 507.078125 271.761719 507.222656 271.570312 507.414062 C 271.378906 507.601562 271.234375 507.820312 271.128906 508.070312 C 271.027344 508.320312 270.972656 508.578125 270.972656 508.847656 C 270.972656 509.113281 271.023438 509.375 271.125 509.621094 C 271.230469 509.871094 271.375 510.089844 271.566406 510.28125 C 271.753906 510.472656 271.972656 510.617188 272.222656 510.722656 C 272.472656 510.824219 272.730469 510.875 273 510.875 C 273.269531 510.875 273.527344 510.824219 273.773438 510.722656 C 274.023438 510.621094 274.242188 510.472656 274.433594 510.285156 C 274.625 510.09375 274.769531 509.875 274.875 509.625 C 274.976562 509.378906 275.027344 509.117188 275.027344 508.847656 C 275.027344 508.582031 274.976562 508.324219 274.875 508.074219 C 274.769531 507.828125 274.625 507.609375 274.4375 507.417969 C 274.246094 507.226562 274.027344 507.082031 273.78125 506.976562 C 273.53125 506.875 273.273438 506.824219 273.003906 506.824219 Z M 294.441406 506.824219 C 294.175781 506.824219 293.914062 506.875 293.667969 506.976562 C 293.417969 507.078125 293.199219 507.226562 293.007812 507.417969 C 292.820312 507.605469 292.671875 507.824219 292.570312 508.074219 C 292.46875 508.320312 292.414062 508.582031 292.414062 508.847656 C 292.414062 509.117188 292.46875 509.375 292.570312 509.625 C 292.671875 509.875 292.820312 510.09375 293.007812 510.28125 C 293.199219 510.472656 293.417969 510.621094 293.667969 510.722656 C 293.914062 510.824219 294.175781 510.875 294.441406 510.875 C 294.710938 510.875 294.96875 510.824219 295.21875 510.722656 C 295.46875 510.621094 295.6875 510.472656 295.875 510.28125 C 296.066406 510.09375 296.210938 509.875 296.316406 509.625 C 296.417969 509.375 296.46875 509.117188 296.46875 508.847656 C 296.46875 508.582031 296.417969 508.320312 296.316406 508.074219 C 296.210938 507.824219 296.066406 507.605469 295.875 507.417969 C 295.6875 507.226562 295.46875 507.078125 295.21875 506.976562 C 294.96875 506.875 294.710938 506.824219 294.441406 506.824219 Z M 315.894531 506.824219 C 315.625 506.824219 315.367188 506.875 315.121094 506.976562 C 314.871094 507.078125 314.652344 507.226562 314.460938 507.417969 C 314.273438 507.605469 314.125 507.824219 314.023438 508.074219 C 313.921875 508.320312 313.867188 508.582031 313.867188 508.847656 C 313.867188 509.117188 313.921875 509.375 314.023438 509.625 C 314.125 509.875 314.273438 510.09375 314.460938 510.28125 C 314.652344 510.472656 314.871094 510.621094 315.121094 510.722656 C 315.367188 510.824219 315.625 510.875 315.894531 510.875 C 316.164062 510.875 316.421875 510.824219 316.671875 510.722656 C 316.917969 510.621094 317.140625 510.472656 317.328125 510.28125 C 317.519531 510.09375 317.664062 509.875 317.769531 509.625 C 317.871094 509.375 317.921875 509.117188 317.921875 508.847656 C 317.921875 508.582031 317.871094 508.320312 317.769531 508.074219 C 317.664062 507.824219 317.519531 507.605469 317.328125 507.417969 C 317.140625 507.226562 316.917969 507.078125 316.671875 506.976562 C 316.421875 506.875 316.164062 506.824219 315.894531 506.824219 Z M 337.335938 506.824219 C 337.070312 506.824219 336.808594 506.875 336.5625 506.976562 C 336.3125 507.078125 336.09375 507.226562 335.90625 507.417969 C 335.714844 507.605469 335.566406 507.824219 335.464844 508.074219 C 335.363281 508.320312 335.3125 508.582031 335.3125 508.847656 C 335.3125 509.117188 335.363281 509.375 335.464844 509.625 C 335.566406 509.875 335.714844 510.09375 335.90625 510.28125 C 336.09375 510.472656 336.3125 510.621094 336.5625 510.722656 C 336.808594 510.824219 337.070312 510.875 337.335938 510.875 C 337.605469 510.875 337.863281 510.824219 338.113281 510.722656 C 338.363281 510.621094 338.582031 510.472656 338.769531 510.28125 C 338.960938 510.09375 339.109375 509.875 339.210938 509.625 C 339.3125 509.375 339.363281 509.117188 339.363281 508.847656 C 339.363281 508.578125 339.3125 508.320312 339.210938 508.070312 C 339.105469 507.824219 338.957031 507.601562 338.765625 507.414062 C 338.578125 507.222656 338.355469 507.074219 338.105469 506.972656 C 337.855469 506.871094 337.597656 506.820312 337.328125 506.824219 Z M 358.769531 506.824219 C 358.5 506.820312 358.242188 506.871094 357.992188 506.976562 C 357.746094 507.078125 357.523438 507.222656 357.335938 507.414062 C 357.144531 507.601562 356.996094 507.820312 356.894531 508.070312 C 356.789062 508.320312 356.738281 508.578125 356.738281 508.847656 C 356.738281 509.113281 356.789062 509.375 356.890625 509.621094 C 356.992188 509.871094 357.140625 510.089844 357.328125 510.28125 C 357.519531 510.472656 357.738281 510.617188 357.988281 510.722656 C 358.234375 510.824219 358.492188 510.875 358.761719 510.875 C 359.03125 510.875 359.289062 510.824219 359.539062 510.722656 C 359.789062 510.621094 360.007812 510.472656 360.199219 510.285156 C 360.386719 510.09375 360.535156 509.875 360.636719 509.625 C 360.738281 509.378906 360.792969 509.117188 360.792969 508.847656 C 360.792969 508.582031 360.742188 508.324219 360.636719 508.074219 C 360.535156 507.828125 360.390625 507.609375 360.199219 507.417969 C 360.011719 507.226562 359.792969 507.082031 359.542969 506.976562 C 359.296875 506.875 359.039062 506.824219 358.769531 506.824219 Z M 380.210938 506.824219 C 379.945312 506.824219 379.6875 506.878906 379.4375 506.980469 C 379.191406 507.085938 378.972656 507.234375 378.785156 507.425781 C 378.597656 507.617188 378.453125 507.835938 378.351562 508.085938 C 378.25 508.332031 378.199219 508.589844 378.199219 508.859375 C 378.203125 509.128906 378.253906 509.386719 378.359375 509.632812 C 378.460938 509.882812 378.609375 510.097656 378.800781 510.289062 C 378.988281 510.476562 379.210938 510.621094 379.457031 510.726562 C 379.707031 510.828125 379.964844 510.878906 380.234375 510.875 C 380.5 510.875 380.757812 510.824219 381.007812 510.722656 C 381.253906 510.617188 381.472656 510.472656 381.664062 510.28125 C 381.851562 510.089844 382 509.871094 382.101562 509.625 C 382.203125 509.375 382.253906 509.117188 382.253906 508.847656 C 382.253906 508.578125 382.203125 508.320312 382.097656 508.070312 C 381.996094 507.820312 381.847656 507.601562 381.65625 507.410156 C 381.464844 507.21875 381.242188 507.074219 380.992188 506.972656 C 380.742188 506.871094 380.480469 506.820312 380.210938 506.824219 Z M 401.648438 506.824219 C 401.378906 506.824219 401.121094 506.875 400.875 506.976562 C 400.625 507.078125 400.40625 507.226562 400.214844 507.417969 C 400.027344 507.605469 399.878906 507.824219 399.777344 508.074219 C 399.671875 508.320312 399.621094 508.582031 399.621094 508.847656 C 399.621094 509.117188 399.671875 509.375 399.777344 509.625 C 399.878906 509.875 400.027344 510.09375 400.214844 510.28125 C 400.40625 510.472656 400.625 510.621094 400.875 510.722656 C 401.121094 510.824219 401.378906 510.875 401.648438 510.875 C 401.917969 510.875 402.175781 510.824219 402.425781 510.722656 C 402.671875 510.621094 402.890625 510.472656 403.082031 510.28125 C 403.273438 510.09375 403.417969 509.875 403.523438 509.625 C 403.625 509.375 403.675781 509.117188 403.675781 508.847656 C 403.675781 508.582031 403.625 508.320312 403.523438 508.074219 C 403.417969 507.824219 403.273438 507.605469 403.082031 507.417969 C 402.890625 507.226562 402.671875 507.078125 402.425781 506.976562 C 402.175781 506.875 401.917969 506.824219 401.648438 506.824219 Z M 423.089844 506.824219 C 422.824219 506.824219 422.5625 506.875 422.316406 506.976562 C 422.066406 507.078125 421.847656 507.226562 421.65625 507.417969 C 421.46875 507.605469 421.320312 507.824219 421.21875 508.074219 C 421.117188 508.320312 421.0625 508.582031 421.0625 508.847656 C 421.0625 509.117188 421.117188 509.375 421.21875 509.625 C 421.320312 509.875 421.46875 510.09375 421.65625 510.28125 C 421.847656 510.472656 422.066406 510.621094 422.316406 510.722656 C 422.5625 510.824219 422.824219 510.875 423.089844 510.875 C 423.359375 510.875 423.617188 510.824219 423.867188 510.722656 C 424.117188 510.621094 424.335938 510.472656 424.523438 510.28125 C 424.714844 510.09375 424.863281 509.875 424.964844 509.625 C 425.066406 509.375 425.117188 509.117188 425.117188 508.847656 C 425.117188 508.582031 425.066406 508.320312 424.964844 508.074219 C 424.863281 507.824219 424.714844 507.605469 424.523438 507.417969 C 424.335938 507.226562 424.117188 507.078125 423.867188 506.976562 C 423.617188 506.875 423.359375 506.824219 423.089844 506.824219 Z M 444.535156 510.871094 C 444.800781 510.871094 445.0625 510.820312 445.308594 510.71875 C 445.558594 510.613281 445.777344 510.46875 445.96875 510.277344 C 446.15625 510.085938 446.304688 509.867188 446.40625 509.617188 C 446.511719 509.371094 446.5625 509.113281 446.5625 508.84375 C 446.5625 508.574219 446.507812 508.316406 446.40625 508.066406 C 446.300781 507.816406 446.15625 507.597656 445.964844 507.410156 C 445.773438 507.21875 445.554688 507.074219 445.308594 506.96875 C 445.058594 506.867188 444.800781 506.816406 444.53125 506.816406 C 444.261719 506.816406 444.003906 506.871094 443.753906 506.972656 C 443.507812 507.078125 443.289062 507.222656 443.097656 507.414062 C 442.90625 507.605469 442.761719 507.824219 442.660156 508.074219 C 442.558594 508.320312 442.507812 508.582031 442.507812 508.847656 C 442.507812 509.117188 442.558594 509.375 442.664062 509.625 C 442.765625 509.871094 442.914062 510.089844 443.101562 510.28125 C 443.292969 510.46875 443.511719 510.613281 443.757812 510.71875 C 444.007812 510.820312 444.265625 510.871094 444.535156 510.871094 Z M 251.5625 527.558594 C 251.292969 527.558594 251.035156 527.609375 250.785156 527.710938 C 250.539062 527.816406 250.320312 527.960938 250.128906 528.148438 C 249.9375 528.339844 249.789062 528.558594 249.6875 528.808594 C 249.582031 529.054688 249.53125 529.3125 249.53125 529.582031 C 249.53125 529.851562 249.582031 530.109375 249.683594 530.359375 C 249.785156 530.609375 249.933594 530.828125 250.125 531.019531 C 250.3125 531.207031 250.53125 531.355469 250.78125 531.457031 C 251.027344 531.5625 251.289062 531.613281 251.554688 531.613281 C 251.824219 531.613281 252.085938 531.5625 252.332031 531.460938 C 252.582031 531.355469 252.800781 531.210938 252.992188 531.019531 C 253.179688 530.832031 253.328125 530.613281 253.429688 530.363281 C 253.535156 530.113281 253.585938 529.855469 253.585938 529.585938 C 253.585938 529.320312 253.535156 529.058594 253.429688 528.8125 C 253.328125 528.5625 253.183594 528.34375 252.992188 528.15625 C 252.804688 527.964844 252.585938 527.820312 252.335938 527.714844 C 252.089844 527.613281 251.832031 527.558594 251.5625 527.558594 Z M 273.003906 527.558594 C 272.738281 527.558594 272.476562 527.609375 272.230469 527.710938 C 271.980469 527.816406 271.761719 527.960938 271.570312 528.148438 C 271.378906 528.339844 271.234375 528.558594 271.128906 528.808594 C 271.027344 529.054688 270.972656 529.3125 270.972656 529.582031 C 270.972656 529.851562 271.023438 530.109375 271.125 530.359375 C 271.230469 530.609375 271.375 530.828125 271.566406 531.019531 C 271.753906 531.207031 271.972656 531.355469 272.222656 531.457031 C 272.472656 531.5625 272.730469 531.613281 273 531.613281 C 273.269531 531.613281 273.527344 531.5625 273.773438 531.460938 C 274.023438 531.355469 274.242188 531.210938 274.433594 531.019531 C 274.625 530.832031 274.769531 530.613281 274.875 530.363281 C 274.976562 530.113281 275.027344 529.855469 275.027344 529.585938 C 275.027344 529.320312 274.976562 529.058594 274.875 528.8125 C 274.769531 528.5625 274.625 528.34375 274.4375 528.15625 C 274.246094 527.964844 274.027344 527.820312 273.78125 527.714844 C 273.53125 527.613281 273.273438 527.558594 273.003906 527.558594 Z M 294.441406 527.558594 C 294.175781 527.558594 293.914062 527.609375 293.667969 527.714844 C 293.417969 527.816406 293.199219 527.964844 293.007812 528.152344 C 292.820312 528.34375 292.671875 528.5625 292.570312 528.8125 C 292.46875 529.058594 292.414062 529.316406 292.414062 529.585938 C 292.414062 529.855469 292.46875 530.113281 292.570312 530.363281 C 292.671875 530.609375 292.820312 530.828125 293.007812 531.019531 C 293.199219 531.210938 293.417969 531.355469 293.667969 531.460938 C 293.914062 531.5625 294.175781 531.613281 294.441406 531.613281 C 294.710938 531.613281 294.96875 531.5625 295.21875 531.460938 C 295.46875 531.355469 295.6875 531.210938 295.875 531.019531 C 296.066406 530.828125 296.210938 530.609375 296.316406 530.363281 C 296.417969 530.113281 296.46875 529.855469 296.46875 529.585938 C 296.46875 529.316406 296.417969 529.058594 296.316406 528.8125 C 296.210938 528.5625 296.066406 528.34375 295.875 528.152344 C 295.6875 527.964844 295.46875 527.816406 295.21875 527.714844 C 294.96875 527.609375 294.710938 527.558594 294.441406 527.558594 Z M 315.894531 527.558594 C 315.625 527.558594 315.367188 527.609375 315.121094 527.714844 C 314.871094 527.816406 314.652344 527.964844 314.460938 528.152344 C 314.273438 528.34375 314.125 528.5625 314.023438 528.8125 C 313.921875 529.058594 313.867188 529.316406 313.867188 529.585938 C 313.867188 529.855469 313.921875 530.113281 314.023438 530.363281 C 314.125 530.609375 314.273438 530.828125 314.460938 531.019531 C 314.652344 531.210938 314.871094 531.355469 315.121094 531.460938 C 315.367188 531.5625 315.625 531.613281 315.894531 531.613281 C 316.164062 531.613281 316.421875 531.5625 316.671875 531.460938 C 316.917969 531.355469 317.140625 531.210938 317.328125 531.019531 C 317.519531 530.828125 317.664062 530.609375 317.769531 530.363281 C 317.871094 530.113281 317.921875 529.855469 317.921875 529.585938 C 317.921875 529.316406 317.871094 529.058594 317.769531 528.8125 C 317.664062 528.5625 317.519531 528.34375 317.328125 528.152344 C 317.140625 527.964844 316.917969 527.816406 316.671875 527.714844 C 316.421875 527.609375 316.164062 527.558594 315.894531 527.558594 Z M 337.335938 527.558594 C 337.070312 527.558594 336.808594 527.609375 336.5625 527.714844 C 336.3125 527.816406 336.09375 527.964844 335.90625 528.152344 C 335.714844 528.34375 335.566406 528.5625 335.464844 528.8125 C 335.363281 529.058594 335.3125 529.316406 335.3125 529.585938 C 335.3125 529.855469 335.363281 530.113281 335.464844 530.363281 C 335.566406 530.609375 335.714844 530.828125 335.90625 531.019531 C 336.09375 531.210938 336.3125 531.355469 336.5625 531.460938 C 336.808594 531.5625 337.070312 531.613281 337.335938 531.613281 C 337.605469 531.613281 337.863281 531.5625 338.113281 531.460938 C 338.363281 531.355469 338.582031 531.210938 338.769531 531.019531 C 338.960938 530.828125 339.109375 530.609375 339.210938 530.363281 C 339.3125 530.113281 339.363281 529.855469 339.363281 529.585938 C 339.363281 529.316406 339.3125 529.058594 339.210938 528.808594 C 339.105469 528.558594 338.957031 528.339844 338.765625 528.148438 C 338.578125 527.960938 338.355469 527.8125 338.105469 527.710938 C 337.855469 527.609375 337.597656 527.558594 337.328125 527.558594 Z M 358.78125 527.558594 C 358.511719 527.558594 358.253906 527.609375 358.003906 527.710938 C 357.753906 527.816406 357.535156 527.960938 357.34375 528.148438 C 357.152344 528.339844 357.007812 528.558594 356.902344 528.808594 C 356.800781 529.054688 356.75 529.3125 356.746094 529.582031 C 356.746094 529.851562 356.796875 530.109375 356.902344 530.359375 C 357.003906 530.609375 357.148438 530.828125 357.339844 531.019531 C 357.53125 531.207031 357.75 531.355469 357.996094 531.457031 C 358.246094 531.5625 358.503906 531.613281 358.773438 531.613281 C 359.042969 531.613281 359.300781 531.5625 359.550781 531.460938 C 359.796875 531.355469 360.015625 531.210938 360.207031 531.019531 C 360.398438 530.832031 360.542969 530.613281 360.648438 530.363281 C 360.75 530.113281 360.800781 529.855469 360.800781 529.585938 C 360.800781 529.316406 360.75 529.058594 360.648438 528.808594 C 360.542969 528.5625 360.398438 528.339844 360.207031 528.152344 C 360.015625 527.960938 359.796875 527.816406 359.546875 527.710938 C 359.296875 527.609375 359.039062 527.558594 358.769531 527.558594 Z M 380.222656 527.558594 C 379.953125 527.558594 379.695312 527.609375 379.445312 527.710938 C 379.195312 527.816406 378.976562 527.960938 378.785156 528.148438 C 378.597656 528.339844 378.449219 528.558594 378.347656 528.808594 C 378.242188 529.054688 378.191406 529.3125 378.191406 529.582031 C 378.191406 529.851562 378.242188 530.109375 378.34375 530.359375 C 378.445312 530.609375 378.59375 530.828125 378.78125 531.019531 C 378.972656 531.207031 379.191406 531.355469 379.441406 531.457031 C 379.6875 531.5625 379.945312 531.613281 380.214844 531.613281 C 380.484375 531.613281 380.742188 531.5625 380.992188 531.460938 C 381.242188 531.355469 381.460938 531.210938 381.648438 531.019531 C 381.839844 530.832031 381.988281 530.613281 382.089844 530.363281 C 382.191406 530.113281 382.246094 529.855469 382.246094 529.585938 C 382.246094 529.316406 382.191406 529.058594 382.089844 528.808594 C 381.984375 528.5625 381.839844 528.339844 381.648438 528.152344 C 381.457031 527.960938 381.238281 527.816406 380.988281 527.710938 C 380.742188 527.609375 380.480469 527.558594 380.210938 527.558594 Z M 401.660156 527.558594 C 401.390625 527.558594 401.132812 527.609375 400.882812 527.714844 C 400.636719 527.816406 400.417969 527.964844 400.226562 528.152344 C 400.035156 528.34375 399.890625 528.5625 399.785156 528.8125 C 399.683594 529.058594 399.632812 529.316406 399.632812 529.585938 C 399.632812 529.855469 399.683594 530.113281 399.785156 530.363281 C 399.890625 530.609375 400.035156 530.828125 400.226562 531.019531 C 400.417969 531.210938 400.636719 531.355469 400.882812 531.460938 C 401.132812 531.5625 401.390625 531.613281 401.660156 531.613281 C 401.929688 531.613281 402.1875 531.5625 402.433594 531.460938 C 402.683594 531.355469 402.902344 531.210938 403.09375 531.019531 C 403.28125 530.828125 403.429688 530.609375 403.53125 530.363281 C 403.636719 530.113281 403.6875 529.855469 403.6875 529.585938 C 403.6875 529.316406 403.636719 529.058594 403.53125 528.808594 C 403.429688 528.558594 403.28125 528.339844 403.089844 528.148438 C 402.898438 527.960938 402.675781 527.8125 402.429688 527.710938 C 402.179688 527.609375 401.917969 527.558594 401.648438 527.558594 Z M 423.101562 527.558594 C 422.832031 527.558594 422.574219 527.609375 422.324219 527.714844 C 422.078125 527.816406 421.859375 527.964844 421.667969 528.152344 C 421.476562 528.34375 421.332031 528.5625 421.230469 528.8125 C 421.125 529.058594 421.074219 529.316406 421.074219 529.585938 C 421.074219 529.855469 421.125 530.113281 421.230469 530.363281 C 421.332031 530.609375 421.476562 530.828125 421.667969 531.019531 C 421.859375 531.210938 422.078125 531.355469 422.324219 531.460938 C 422.574219 531.5625 422.832031 531.613281 423.101562 531.613281 C 423.371094 531.613281 423.628906 531.5625 423.878906 531.460938 C 424.125 531.355469 424.34375 531.210938 424.535156 531.019531 C 424.726562 530.828125 424.871094 530.609375 424.972656 530.363281 C 425.078125 530.113281 425.128906 529.855469 425.128906 529.585938 C 425.128906 529.316406 425.078125 529.058594 424.972656 528.808594 C 424.871094 528.558594 424.722656 528.339844 424.53125 528.148438 C 424.339844 527.960938 424.121094 527.8125 423.871094 527.710938 C 423.621094 527.609375 423.359375 527.558594 423.089844 527.558594 Z M 444.542969 527.558594 C 444.273438 527.554688 444.015625 527.601562 443.765625 527.703125 C 443.515625 527.800781 443.292969 527.945312 443.097656 528.132812 C 442.90625 528.320312 442.757812 528.539062 442.648438 528.785156 C 442.542969 529.035156 442.488281 529.292969 442.484375 529.5625 C 442.484375 529.832031 442.53125 530.089844 442.632812 530.339844 C 442.730469 530.589844 442.875 530.8125 443.066406 531.003906 C 443.253906 531.199219 443.472656 531.347656 443.71875 531.453125 C 443.96875 531.558594 444.226562 531.609375 444.496094 531.613281 C 444.765625 531.617188 445.023438 531.566406 445.273438 531.464844 C 445.523438 531.363281 445.746094 531.21875 445.9375 531.03125 C 446.128906 530.839844 446.277344 530.621094 446.382812 530.375 C 446.484375 530.125 446.539062 529.867188 446.539062 529.597656 C 446.542969 529.328125 446.492188 529.070312 446.390625 528.824219 C 446.289062 528.574219 446.144531 528.355469 445.957031 528.164062 C 445.769531 527.972656 445.550781 527.824219 445.304688 527.722656 C 445.058594 527.617188 444.800781 527.5625 444.535156 527.558594 Z M 251.5625 548.324219 C 251.296875 548.320312 251.035156 548.371094 250.789062 548.476562 C 250.539062 548.578125 250.320312 548.722656 250.128906 548.910156 C 249.941406 549.101562 249.792969 549.320312 249.6875 549.566406 C 249.585938 549.8125 249.53125 550.070312 249.53125 550.339844 C 249.53125 550.609375 249.578125 550.867188 249.679688 551.113281 C 249.78125 551.363281 249.925781 551.582031 250.117188 551.773438 C 250.304688 551.964844 250.523438 552.113281 250.769531 552.21875 C 251.015625 552.320312 251.273438 552.375 251.542969 552.375 C 251.8125 552.378906 252.070312 552.328125 252.320312 552.230469 C 252.566406 552.128906 252.789062 551.984375 252.980469 551.796875 C 253.171875 551.609375 253.320312 551.390625 253.421875 551.144531 C 253.527344 550.898438 253.582031 550.640625 253.585938 550.371094 C 253.589844 550.101562 253.539062 549.839844 253.4375 549.589844 C 253.335938 549.339844 253.191406 549.117188 253 548.925781 C 252.8125 548.734375 252.589844 548.585938 252.34375 548.480469 C 252.09375 548.375 251.832031 548.324219 251.5625 548.324219 Z M 273.003906 548.324219 C 272.738281 548.320312 272.476562 548.375 272.230469 548.476562 C 271.980469 548.578125 271.761719 548.722656 271.570312 548.914062 C 271.378906 549.105469 271.230469 549.324219 271.128906 549.570312 C 271.027344 549.820312 270.972656 550.078125 270.972656 550.347656 C 270.972656 550.617188 271.023438 550.875 271.128906 551.125 C 271.230469 551.375 271.378906 551.59375 271.566406 551.785156 C 271.757812 551.972656 271.976562 552.121094 272.226562 552.222656 C 272.472656 552.324219 272.734375 552.378906 273.003906 552.378906 C 273.269531 552.375 273.53125 552.324219 273.777344 552.222656 C 274.027344 552.117188 274.246094 551.972656 274.4375 551.78125 C 274.625 551.589844 274.773438 551.371094 274.875 551.121094 C 274.976562 550.871094 275.027344 550.613281 275.027344 550.34375 C 275.027344 550.078125 274.976562 549.820312 274.871094 549.570312 C 274.769531 549.324219 274.625 549.105469 274.433594 548.917969 C 274.246094 548.726562 274.027344 548.582031 273.777344 548.476562 C 273.53125 548.375 273.273438 548.324219 273.003906 548.324219 Z M 294.441406 548.324219 C 294.175781 548.324219 293.917969 548.375 293.667969 548.476562 C 293.421875 548.578125 293.203125 548.726562 293.011719 548.914062 C 292.820312 549.105469 292.675781 549.320312 292.570312 549.570312 C 292.46875 549.816406 292.417969 550.074219 292.414062 550.34375 C 292.414062 550.609375 292.464844 550.871094 292.566406 551.117188 C 292.667969 551.367188 292.8125 551.585938 293.003906 551.777344 C 293.191406 551.964844 293.410156 552.113281 293.65625 552.21875 C 293.902344 552.320312 294.160156 552.375 294.429688 552.378906 C 294.699219 552.378906 294.957031 552.328125 295.203125 552.230469 C 295.453125 552.128906 295.671875 551.984375 295.863281 551.796875 C 296.054688 551.609375 296.203125 551.390625 296.308594 551.144531 C 296.414062 550.894531 296.46875 550.640625 296.46875 550.371094 C 296.472656 550.101562 296.421875 549.839844 296.320312 549.589844 C 296.21875 549.335938 296.074219 549.117188 295.882812 548.925781 C 295.691406 548.730469 295.472656 548.582031 295.222656 548.480469 C 294.972656 548.375 294.714844 548.324219 294.441406 548.324219 Z M 315.886719 548.324219 C 315.617188 548.324219 315.359375 548.375 315.109375 548.476562 C 314.859375 548.582031 314.640625 548.726562 314.453125 548.917969 C 314.261719 549.109375 314.113281 549.328125 314.011719 549.574219 C 313.910156 549.824219 313.859375 550.082031 313.859375 550.351562 C 313.859375 550.621094 313.910156 550.878906 314.011719 551.128906 C 314.117188 551.375 314.261719 551.59375 314.453125 551.785156 C 314.644531 551.976562 314.863281 552.121094 315.113281 552.222656 C 315.359375 552.328125 315.621094 552.378906 315.886719 552.378906 C 316.15625 552.375 316.417969 552.324219 316.664062 552.222656 C 316.914062 552.117188 317.132812 551.972656 317.320312 551.78125 C 317.511719 551.589844 317.65625 551.371094 317.761719 551.121094 C 317.863281 550.871094 317.914062 550.613281 317.914062 550.34375 C 317.910156 550.078125 317.859375 549.820312 317.757812 549.574219 C 317.65625 549.324219 317.507812 549.109375 317.320312 548.917969 C 317.132812 548.730469 316.914062 548.582031 316.667969 548.480469 C 316.421875 548.375 316.164062 548.324219 315.894531 548.324219 Z M 337.328125 548.324219 C 337.058594 548.324219 336.800781 548.375 336.550781 548.476562 C 336.304688 548.582031 336.082031 548.726562 335.894531 548.917969 C 335.703125 549.109375 335.558594 549.328125 335.453125 549.574219 C 335.351562 549.824219 335.300781 550.082031 335.300781 550.351562 C 335.300781 550.621094 335.351562 550.878906 335.457031 551.128906 C 335.558594 551.375 335.707031 551.59375 335.894531 551.785156 C 336.085938 551.976562 336.304688 552.121094 336.554688 552.222656 C 336.804688 552.328125 337.0625 552.378906 337.332031 552.378906 C 337.601562 552.375 337.859375 552.324219 338.105469 552.222656 C 338.355469 552.117188 338.574219 551.972656 338.765625 551.78125 C 338.953125 551.589844 339.101562 551.371094 339.203125 551.121094 C 339.304688 550.871094 339.355469 550.613281 339.355469 550.34375 C 339.355469 550.078125 339.300781 549.820312 339.199219 549.570312 C 339.09375 549.324219 338.949219 549.105469 338.757812 548.914062 C 338.570312 548.726562 338.351562 548.578125 338.101562 548.476562 C 337.855469 548.375 337.597656 548.324219 337.328125 548.324219 Z M 358.769531 548.324219 C 358.5 548.320312 358.242188 548.375 357.992188 548.476562 C 357.742188 548.578125 357.523438 548.722656 357.332031 548.914062 C 357.144531 549.105469 356.996094 549.324219 356.894531 549.570312 C 356.789062 549.820312 356.738281 550.078125 356.738281 550.347656 C 356.738281 550.617188 356.789062 550.875 356.890625 551.125 C 356.996094 551.375 357.140625 551.59375 357.332031 551.785156 C 357.523438 551.972656 357.742188 552.121094 357.988281 552.222656 C 358.238281 552.324219 358.496094 552.378906 358.765625 552.378906 C 359.035156 552.375 359.292969 552.324219 359.542969 552.222656 C 359.792969 552.117188 360.011719 551.972656 360.199219 551.78125 C 360.390625 551.589844 360.535156 551.371094 360.640625 551.121094 C 360.742188 550.871094 360.792969 550.613281 360.792969 550.34375 C 360.789062 550.078125 360.738281 549.820312 360.636719 549.570312 C 360.535156 549.324219 360.386719 549.105469 360.199219 548.917969 C 360.007812 548.726562 359.789062 548.582031 359.542969 548.476562 C 359.296875 548.375 359.039062 548.324219 358.769531 548.324219 Z M 380.210938 548.324219 C 379.945312 548.324219 379.6875 548.378906 379.441406 548.480469 C 379.195312 548.585938 378.976562 548.734375 378.789062 548.921875 C 378.597656 549.113281 378.453125 549.332031 378.351562 549.582031 C 378.25 549.828125 378.199219 550.085938 378.199219 550.351562 C 378.199219 550.621094 378.253906 550.878906 378.355469 551.125 C 378.457031 551.375 378.601562 551.59375 378.792969 551.78125 C 378.980469 551.972656 379.199219 552.117188 379.445312 552.21875 C 379.695312 552.324219 379.953125 552.375 380.21875 552.375 C 380.488281 552.378906 380.746094 552.328125 380.992188 552.226562 C 381.242188 552.125 381.460938 551.980469 381.652344 551.792969 C 381.839844 551.605469 381.988281 551.386719 382.09375 551.140625 C 382.199219 550.894531 382.25 550.636719 382.253906 550.371094 C 382.257812 550.097656 382.207031 549.835938 382.105469 549.585938 C 382.003906 549.332031 381.855469 549.109375 381.664062 548.917969 C 381.472656 548.726562 381.25 548.578125 380.996094 548.476562 C 380.746094 548.371094 380.484375 548.320312 380.210938 548.324219 Z M 401.648438 548.324219 C 401.378906 548.324219 401.121094 548.375 400.871094 548.476562 C 400.625 548.582031 400.40625 548.726562 400.214844 548.917969 C 400.023438 549.109375 399.878906 549.328125 399.777344 549.574219 C 399.671875 549.824219 399.621094 550.082031 399.621094 550.351562 C 399.621094 550.621094 399.675781 550.878906 399.777344 551.128906 C 399.878906 551.375 400.027344 551.59375 400.21875 551.785156 C 400.40625 551.976562 400.628906 552.121094 400.875 552.222656 C 401.125 552.328125 401.382812 552.378906 401.652344 552.378906 C 401.921875 552.375 402.179688 552.324219 402.429688 552.222656 C 402.675781 552.117188 402.894531 551.972656 403.085938 551.78125 C 403.273438 551.589844 403.421875 551.371094 403.523438 551.121094 C 403.625 550.871094 403.675781 550.613281 403.675781 550.34375 C 403.675781 550.078125 403.625 549.820312 403.519531 549.570312 C 403.417969 549.324219 403.269531 549.105469 403.082031 548.914062 C 402.890625 548.726562 402.671875 548.578125 402.421875 548.476562 C 402.175781 548.375 401.917969 548.324219 401.648438 548.324219 Z M 423.089844 548.324219 C 422.824219 548.324219 422.5625 548.375 422.316406 548.476562 C 422.066406 548.582031 421.847656 548.726562 421.65625 548.917969 C 421.46875 549.109375 421.320312 549.328125 421.21875 549.574219 C 421.117188 549.824219 421.0625 550.082031 421.0625 550.351562 C 421.066406 550.621094 421.117188 550.878906 421.21875 551.128906 C 421.324219 551.375 421.46875 551.59375 421.660156 551.785156 C 421.851562 551.976562 422.070312 552.121094 422.320312 552.222656 C 422.566406 552.328125 422.824219 552.378906 423.09375 552.378906 C 423.363281 552.375 423.621094 552.324219 423.871094 552.222656 C 424.117188 552.117188 424.339844 551.972656 424.527344 551.78125 C 424.71875 551.589844 424.863281 551.371094 424.964844 551.121094 C 425.070312 550.871094 425.121094 550.613281 425.117188 550.34375 C 425.117188 550.078125 425.066406 549.820312 424.960938 549.570312 C 424.859375 549.324219 424.714844 549.105469 424.523438 548.914062 C 424.332031 548.726562 424.113281 548.578125 423.867188 548.476562 C 423.617188 548.375 423.359375 548.324219 423.089844 548.324219 Z M 444.535156 548.324219 C 444.265625 548.320312 444.007812 548.367188 443.757812 548.46875 C 443.507812 548.570312 443.285156 548.714844 443.09375 548.902344 C 442.902344 549.089844 442.753906 549.308594 442.648438 549.554688 C 442.542969 549.800781 442.488281 550.058594 442.484375 550.328125 C 442.484375 550.597656 442.53125 550.855469 442.632812 551.105469 C 442.734375 551.355469 442.878906 551.578125 443.066406 551.769531 C 443.253906 551.960938 443.472656 552.109375 443.71875 552.214844 C 443.964844 552.320312 444.222656 552.375 444.492188 552.375 C 444.761719 552.378906 445.019531 552.332031 445.269531 552.230469 C 445.519531 552.128906 445.738281 551.984375 445.933594 551.796875 C 446.125 551.609375 446.273438 551.390625 446.378906 551.144531 C 446.484375 550.898438 446.539062 550.640625 446.539062 550.371094 C 446.542969 550.101562 446.492188 549.84375 446.394531 549.59375 C 446.292969 549.34375 446.148438 549.125 445.960938 548.929688 C 445.773438 548.738281 445.554688 548.589844 445.308594 548.484375 C 445.0625 548.378906 444.800781 548.324219 444.535156 548.324219 Z M 251.5625 569.058594 C 251.296875 569.058594 251.035156 569.109375 250.789062 569.210938 C 250.539062 569.3125 250.320312 569.460938 250.128906 569.648438 C 249.941406 569.835938 249.792969 570.054688 249.6875 570.304688 C 249.585938 570.550781 249.53125 570.808594 249.53125 571.078125 C 249.53125 571.34375 249.578125 571.605469 249.679688 571.851562 C 249.78125 572.101562 249.925781 572.320312 250.117188 572.511719 C 250.304688 572.703125 250.523438 572.851562 250.769531 572.953125 C 251.015625 573.058594 251.273438 573.113281 251.542969 573.113281 C 251.8125 573.117188 252.070312 573.066406 252.320312 572.964844 C 252.566406 572.867188 252.789062 572.722656 252.980469 572.535156 C 253.171875 572.34375 253.320312 572.128906 253.421875 571.878906 C 253.527344 571.632812 253.582031 571.375 253.585938 571.109375 C 253.585938 570.839844 253.535156 570.578125 253.433594 570.332031 C 253.332031 570.082031 253.1875 569.859375 252.996094 569.667969 C 252.808594 569.480469 252.589844 569.332031 252.339844 569.226562 C 252.089844 569.125 251.832031 569.070312 251.5625 569.070312 Z M 273.003906 569.058594 C 272.738281 569.058594 272.476562 569.109375 272.230469 569.210938 C 271.980469 569.316406 271.761719 569.460938 271.570312 569.652344 C 271.378906 569.839844 271.234375 570.058594 271.128906 570.308594 C 271.027344 570.554688 270.972656 570.816406 270.972656 571.082031 C 270.972656 571.351562 271.023438 571.613281 271.125 571.859375 C 271.230469 572.109375 271.375 572.328125 271.566406 572.519531 C 271.753906 572.710938 271.972656 572.855469 272.222656 572.960938 C 272.472656 573.0625 272.730469 573.113281 273 573.113281 C 273.269531 573.113281 273.527344 573.0625 273.773438 572.960938 C 274.023438 572.859375 274.242188 572.710938 274.433594 572.519531 C 274.625 572.332031 274.769531 572.113281 274.875 571.863281 C 274.976562 571.613281 275.027344 571.355469 275.027344 571.085938 C 275.027344 570.820312 274.972656 570.5625 274.871094 570.316406 C 274.769531 570.070312 274.621094 569.851562 274.433594 569.664062 C 274.242188 569.472656 274.023438 569.328125 273.777344 569.226562 C 273.53125 569.121094 273.273438 569.070312 273.003906 569.070312 Z M 294.441406 569.058594 C 294.175781 569.058594 293.917969 569.113281 293.667969 569.214844 C 293.421875 569.316406 293.203125 569.460938 293.011719 569.652344 C 292.820312 569.839844 292.675781 570.058594 292.570312 570.308594 C 292.46875 570.554688 292.417969 570.8125 292.414062 571.082031 C 292.414062 571.347656 292.464844 571.605469 292.566406 571.855469 C 292.667969 572.101562 292.8125 572.324219 293.003906 572.511719 C 293.191406 572.703125 293.410156 572.851562 293.65625 572.957031 C 293.902344 573.058594 294.160156 573.113281 294.429688 573.113281 C 294.699219 573.117188 294.957031 573.066406 295.203125 572.964844 C 295.453125 572.863281 295.671875 572.71875 295.863281 572.53125 C 296.054688 572.34375 296.203125 572.128906 296.308594 571.878906 C 296.414062 571.632812 296.46875 571.375 296.46875 571.109375 C 296.472656 570.839844 296.421875 570.578125 296.320312 570.328125 C 296.214844 570.078125 296.070312 569.859375 295.878906 569.667969 C 295.691406 569.476562 295.46875 569.328125 295.222656 569.226562 C 294.972656 569.121094 294.710938 569.070312 294.441406 569.070312 Z M 315.886719 569.058594 C 315.617188 569.058594 315.359375 569.113281 315.109375 569.214844 C 314.859375 569.316406 314.640625 569.464844 314.453125 569.652344 C 314.261719 569.84375 314.117188 570.0625 314.011719 570.3125 C 313.910156 570.558594 313.859375 570.820312 313.859375 571.085938 C 313.859375 571.355469 313.910156 571.613281 314.011719 571.863281 C 314.117188 572.109375 314.261719 572.332031 314.453125 572.519531 C 314.640625 572.710938 314.859375 572.855469 315.109375 572.960938 C 315.359375 573.0625 315.617188 573.113281 315.886719 573.113281 C 316.152344 573.113281 316.414062 573.0625 316.660156 572.960938 C 316.910156 572.855469 317.128906 572.710938 317.320312 572.519531 C 317.507812 572.332031 317.65625 572.109375 317.757812 571.863281 C 317.859375 571.613281 317.914062 571.355469 317.914062 571.085938 C 317.910156 570.820312 317.859375 570.5625 317.757812 570.316406 C 317.652344 570.070312 317.507812 569.851562 317.320312 569.664062 C 317.128906 569.476562 316.914062 569.328125 316.664062 569.226562 C 316.417969 569.125 316.164062 569.070312 315.894531 569.070312 Z M 337.328125 569.058594 C 337.058594 569.058594 336.800781 569.113281 336.550781 569.214844 C 336.304688 569.316406 336.085938 569.464844 335.894531 569.652344 C 335.703125 569.84375 335.558594 570.0625 335.453125 570.3125 C 335.351562 570.558594 335.300781 570.820312 335.300781 571.085938 C 335.300781 571.355469 335.351562 571.613281 335.453125 571.863281 C 335.558594 572.109375 335.703125 572.332031 335.894531 572.519531 C 336.085938 572.710938 336.304688 572.855469 336.550781 572.960938 C 336.800781 573.0625 337.058594 573.113281 337.328125 573.113281 C 337.597656 573.113281 337.855469 573.0625 338.101562 572.960938 C 338.351562 572.855469 338.570312 572.710938 338.761719 572.519531 C 338.949219 572.332031 339.097656 572.109375 339.199219 571.863281 C 339.304688 571.613281 339.355469 571.355469 339.355469 571.085938 C 339.351562 570.820312 339.300781 570.5625 339.199219 570.316406 C 339.09375 570.066406 338.945312 569.847656 338.757812 569.660156 C 338.566406 569.472656 338.347656 569.324219 338.101562 569.222656 C 337.851562 569.121094 337.59375 569.070312 337.328125 569.070312 Z M 358.769531 569.058594 C 358.5 569.058594 358.242188 569.109375 357.992188 569.210938 C 357.746094 569.316406 357.523438 569.460938 357.335938 569.652344 C 357.144531 569.839844 356.996094 570.058594 356.894531 570.308594 C 356.789062 570.554688 356.738281 570.816406 356.738281 571.082031 C 356.738281 571.351562 356.789062 571.613281 356.890625 571.859375 C 356.992188 572.109375 357.140625 572.328125 357.328125 572.519531 C 357.519531 572.710938 357.738281 572.855469 357.988281 572.960938 C 358.234375 573.0625 358.492188 573.113281 358.761719 573.113281 C 359.03125 573.113281 359.289062 573.0625 359.539062 572.960938 C 359.789062 572.859375 360.007812 572.710938 360.199219 572.519531 C 360.386719 572.332031 360.535156 572.113281 360.636719 571.863281 C 360.738281 571.613281 360.792969 571.355469 360.792969 571.085938 C 360.789062 570.820312 360.738281 570.5625 360.636719 570.316406 C 360.53125 570.070312 360.386719 569.851562 360.195312 569.664062 C 360.007812 569.472656 359.789062 569.328125 359.542969 569.226562 C 359.292969 569.121094 359.039062 569.070312 358.769531 569.070312 Z M 380.210938 569.058594 C 379.945312 569.0625 379.6875 569.113281 379.441406 569.21875 C 379.195312 569.324219 378.976562 569.46875 378.789062 569.660156 C 378.597656 569.851562 378.453125 570.070312 378.351562 570.316406 C 378.25 570.566406 378.199219 570.824219 378.199219 571.089844 C 378.199219 571.359375 378.253906 571.617188 378.355469 571.863281 C 378.457031 572.109375 378.601562 572.328125 378.792969 572.519531 C 378.980469 572.707031 379.199219 572.855469 379.445312 572.957031 C 379.695312 573.0625 379.953125 573.113281 380.21875 573.113281 C 380.488281 573.117188 380.746094 573.066406 380.992188 572.964844 C 381.242188 572.863281 381.460938 572.71875 381.652344 572.53125 C 381.839844 572.34375 381.988281 572.125 382.09375 571.878906 C 382.199219 571.632812 382.25 571.375 382.253906 571.109375 C 382.257812 570.835938 382.207031 570.574219 382.101562 570.324219 C 382 570.074219 381.851562 569.855469 381.660156 569.664062 C 381.46875 569.472656 381.246094 569.324219 380.996094 569.222656 C 380.742188 569.117188 380.484375 569.070312 380.210938 569.070312 Z M 401.648438 569.058594 C 401.378906 569.058594 401.121094 569.113281 400.875 569.214844 C 400.625 569.316406 400.40625 569.464844 400.214844 569.652344 C 400.027344 569.84375 399.878906 570.0625 399.777344 570.3125 C 399.671875 570.558594 399.621094 570.820312 399.621094 571.085938 C 399.621094 571.355469 399.671875 571.613281 399.777344 571.863281 C 399.878906 572.109375 400.027344 572.332031 400.214844 572.519531 C 400.40625 572.710938 400.625 572.855469 400.875 572.960938 C 401.121094 573.0625 401.378906 573.113281 401.648438 573.113281 C 401.917969 573.113281 402.175781 573.0625 402.425781 572.960938 C 402.671875 572.855469 402.890625 572.710938 403.082031 572.519531 C 403.273438 572.332031 403.417969 572.109375 403.523438 571.863281 C 403.625 571.613281 403.675781 571.355469 403.675781 571.085938 C 403.675781 570.820312 403.621094 570.5625 403.519531 570.316406 C 403.414062 570.066406 403.269531 569.847656 403.078125 569.660156 C 402.890625 569.472656 402.671875 569.324219 402.421875 569.222656 C 402.175781 569.121094 401.917969 569.070312 401.648438 569.070312 Z M 423.089844 569.058594 C 422.824219 569.058594 422.5625 569.113281 422.316406 569.214844 C 422.066406 569.316406 421.847656 569.464844 421.65625 569.652344 C 421.46875 569.84375 421.320312 570.0625 421.21875 570.3125 C 421.117188 570.558594 421.0625 570.820312 421.0625 571.085938 C 421.0625 571.355469 421.117188 571.613281 421.21875 571.863281 C 421.320312 572.109375 421.46875 572.332031 421.65625 572.519531 C 421.847656 572.710938 422.066406 572.855469 422.316406 572.960938 C 422.5625 573.0625 422.824219 573.113281 423.089844 573.113281 C 423.359375 573.113281 423.617188 573.0625 423.867188 572.960938 C 424.117188 572.855469 424.335938 572.710938 424.523438 572.519531 C 424.714844 572.332031 424.863281 572.109375 424.964844 571.863281 C 425.066406 571.613281 425.117188 571.355469 425.117188 571.085938 C 425.117188 570.820312 425.066406 570.5625 424.960938 570.316406 C 424.859375 570.066406 424.710938 569.847656 424.519531 569.660156 C 424.332031 569.472656 424.113281 569.324219 423.863281 569.222656 C 423.617188 569.121094 423.359375 569.070312 423.089844 569.070312 Z M 444.535156 569.058594 C 444.265625 569.058594 444.007812 569.105469 443.757812 569.207031 C 443.507812 569.308594 443.285156 569.449219 443.09375 569.640625 C 442.902344 569.828125 442.753906 570.046875 442.648438 570.292969 C 442.542969 570.539062 442.488281 570.796875 442.484375 571.066406 C 442.484375 571.335938 442.53125 571.59375 442.632812 571.84375 C 442.734375 572.09375 442.878906 572.3125 443.066406 572.503906 C 443.253906 572.699219 443.472656 572.847656 443.71875 572.953125 C 443.964844 573.058594 444.222656 573.109375 444.492188 573.113281 C 444.761719 573.117188 445.019531 573.066406 445.269531 572.96875 C 445.519531 572.867188 445.738281 572.722656 445.933594 572.535156 C 446.125 572.347656 446.273438 572.128906 446.378906 571.882812 C 446.484375 571.632812 446.539062 571.375 446.539062 571.109375 C 446.542969 570.839844 446.492188 570.582031 446.390625 570.332031 C 446.289062 570.085938 446.144531 569.867188 445.957031 569.675781 C 445.769531 569.484375 445.550781 569.335938 445.304688 569.230469 C 445.058594 569.125 444.800781 569.074219 444.535156 569.070312 Z M 251.5625 589.824219 C 251.292969 589.824219 251.035156 589.875 250.785156 589.976562 C 250.539062 590.078125 250.316406 590.222656 250.128906 590.414062 C 249.9375 590.605469 249.789062 590.824219 249.6875 591.070312 C 249.582031 591.320312 249.53125 591.578125 249.53125 591.847656 C 249.53125 592.117188 249.582031 592.375 249.683594 592.625 C 249.789062 592.875 249.933594 593.09375 250.125 593.285156 C 250.316406 593.472656 250.535156 593.621094 250.785156 593.722656 C 251.03125 593.828125 251.289062 593.878906 251.558594 593.878906 C 251.828125 593.878906 252.089844 593.824219 252.335938 593.722656 C 252.585938 593.617188 252.804688 593.472656 252.992188 593.28125 C 253.183594 593.089844 253.332031 592.871094 253.433594 592.621094 C 253.535156 592.375 253.585938 592.113281 253.585938 591.84375 C 253.585938 591.578125 253.53125 591.320312 253.429688 591.070312 C 253.328125 590.824219 253.179688 590.605469 252.992188 590.417969 C 252.800781 590.226562 252.582031 590.082031 252.335938 589.980469 C 252.089844 589.875 251.832031 589.824219 251.5625 589.824219 Z M 273.003906 589.824219 C 272.738281 589.824219 272.476562 589.875 272.230469 589.976562 C 271.980469 590.078125 271.761719 590.222656 271.570312 590.414062 C 271.378906 590.605469 271.230469 590.824219 271.128906 591.070312 C 271.027344 591.320312 270.972656 591.578125 270.972656 591.847656 C 270.972656 592.117188 271.023438 592.375 271.128906 592.625 C 271.230469 592.875 271.378906 593.09375 271.566406 593.285156 C 271.757812 593.472656 271.976562 593.621094 272.226562 593.722656 C 272.472656 593.828125 272.734375 593.878906 273.003906 593.878906 C 273.269531 593.878906 273.53125 593.824219 273.777344 593.722656 C 274.027344 593.617188 274.246094 593.472656 274.4375 593.28125 C 274.625 593.089844 274.773438 592.871094 274.875 592.621094 C 274.976562 592.375 275.027344 592.113281 275.027344 591.84375 C 275.027344 591.578125 274.976562 591.320312 274.871094 591.070312 C 274.769531 590.824219 274.625 590.605469 274.433594 590.417969 C 274.246094 590.226562 274.027344 590.082031 273.777344 589.980469 C 273.53125 589.875 273.273438 589.824219 273.003906 589.824219 Z M 294.441406 589.824219 C 294.175781 589.824219 293.914062 589.875 293.667969 589.976562 C 293.417969 590.082031 293.199219 590.226562 293.007812 590.417969 C 292.820312 590.609375 292.671875 590.828125 292.570312 591.074219 C 292.46875 591.324219 292.414062 591.582031 292.414062 591.851562 C 292.417969 592.121094 292.46875 592.378906 292.570312 592.628906 C 292.675781 592.875 292.820312 593.09375 293.011719 593.285156 C 293.203125 593.476562 293.421875 593.621094 293.671875 593.722656 C 293.917969 593.828125 294.175781 593.878906 294.445312 593.878906 C 294.714844 593.875 294.972656 593.824219 295.222656 593.722656 C 295.46875 593.617188 295.691406 593.472656 295.878906 593.28125 C 296.070312 593.089844 296.214844 592.871094 296.316406 592.621094 C 296.417969 592.371094 296.46875 592.113281 296.46875 591.84375 C 296.46875 591.578125 296.417969 591.320312 296.3125 591.070312 C 296.210938 590.824219 296.0625 590.605469 295.875 590.414062 C 295.683594 590.226562 295.464844 590.078125 295.21875 589.976562 C 294.96875 589.875 294.710938 589.824219 294.441406 589.824219 Z M 315.886719 589.824219 C 315.617188 589.824219 315.359375 589.875 315.109375 589.976562 C 314.859375 590.082031 314.640625 590.226562 314.453125 590.417969 C 314.261719 590.609375 314.113281 590.828125 314.011719 591.074219 C 313.910156 591.324219 313.859375 591.582031 313.859375 591.851562 C 313.859375 592.121094 313.910156 592.378906 314.011719 592.628906 C 314.117188 592.875 314.261719 593.09375 314.453125 593.285156 C 314.644531 593.476562 314.863281 593.621094 315.113281 593.722656 C 315.359375 593.828125 315.621094 593.878906 315.886719 593.878906 C 316.15625 593.875 316.417969 593.824219 316.664062 593.722656 C 316.914062 593.617188 317.132812 593.472656 317.320312 593.28125 C 317.511719 593.089844 317.65625 592.871094 317.761719 592.621094 C 317.863281 592.371094 317.914062 592.113281 317.914062 591.84375 C 317.910156 591.578125 317.859375 591.320312 317.757812 591.074219 C 317.65625 590.828125 317.507812 590.609375 317.320312 590.417969 C 317.132812 590.230469 316.914062 590.082031 316.667969 589.980469 C 316.421875 589.875 316.164062 589.824219 315.894531 589.824219 Z M 337.328125 589.824219 C 337.058594 589.824219 336.800781 589.875 336.550781 589.976562 C 336.304688 590.082031 336.082031 590.226562 335.894531 590.417969 C 335.703125 590.609375 335.558594 590.828125 335.453125 591.074219 C 335.351562 591.324219 335.300781 591.582031 335.300781 591.851562 C 335.300781 592.121094 335.351562 592.378906 335.457031 592.628906 C 335.558594 592.875 335.707031 593.09375 335.894531 593.285156 C 336.085938 593.476562 336.304688 593.621094 336.554688 593.722656 C 336.804688 593.828125 337.0625 593.878906 337.332031 593.878906 C 337.601562 593.875 337.859375 593.824219 338.105469 593.722656 C 338.355469 593.617188 338.574219 593.472656 338.765625 593.28125 C 338.953125 593.089844 339.101562 592.871094 339.203125 592.621094 C 339.304688 592.371094 339.355469 592.113281 339.355469 591.84375 C 339.355469 591.578125 339.300781 591.320312 339.199219 591.070312 C 339.09375 590.824219 338.949219 590.605469 338.757812 590.414062 C 338.570312 590.226562 338.351562 590.078125 338.101562 589.976562 C 337.855469 589.875 337.597656 589.824219 337.328125 589.824219 Z M 358.769531 589.824219 C 358.5 589.824219 358.242188 589.875 357.992188 589.976562 C 357.742188 590.078125 357.523438 590.222656 357.332031 590.414062 C 357.144531 590.605469 356.996094 590.824219 356.894531 591.070312 C 356.789062 591.320312 356.738281 591.578125 356.738281 591.847656 C 356.738281 592.117188 356.789062 592.375 356.890625 592.625 C 356.996094 592.875 357.140625 593.09375 357.332031 593.285156 C 357.523438 593.472656 357.742188 593.621094 357.988281 593.722656 C 358.238281 593.828125 358.496094 593.878906 358.765625 593.878906 C 359.035156 593.878906 359.292969 593.824219 359.542969 593.722656 C 359.792969 593.617188 360.011719 593.472656 360.199219 593.28125 C 360.390625 593.089844 360.535156 592.871094 360.640625 592.621094 C 360.742188 592.375 360.792969 592.113281 360.792969 591.84375 C 360.789062 591.578125 360.738281 591.320312 360.636719 591.070312 C 360.535156 590.824219 360.386719 590.605469 360.199219 590.417969 C 360.007812 590.226562 359.789062 590.082031 359.542969 589.980469 C 359.296875 589.875 359.039062 589.824219 358.769531 589.824219 Z M 380.210938 589.824219 C 379.945312 589.824219 379.6875 589.878906 379.4375 589.984375 C 379.191406 590.085938 378.972656 590.234375 378.785156 590.425781 C 378.597656 590.617188 378.449219 590.835938 378.351562 591.085938 C 378.25 591.335938 378.199219 591.59375 378.199219 591.863281 C 378.203125 592.128906 378.253906 592.390625 378.359375 592.636719 C 378.464844 592.882812 378.609375 593.101562 378.800781 593.289062 C 378.992188 593.480469 379.210938 593.625 379.460938 593.726562 C 379.710938 593.828125 379.96875 593.878906 380.234375 593.878906 C 380.503906 593.875 380.761719 593.824219 381.011719 593.71875 C 381.257812 593.617188 381.476562 593.46875 381.664062 593.277344 C 381.855469 593.089844 382 592.867188 382.101562 592.621094 C 382.203125 592.371094 382.253906 592.113281 382.253906 591.84375 C 382.253906 591.574219 382.203125 591.316406 382.097656 591.066406 C 381.992188 590.820312 381.84375 590.597656 381.652344 590.410156 C 381.460938 590.21875 381.242188 590.074219 380.992188 589.972656 C 380.742188 589.871094 380.480469 589.820312 380.210938 589.824219 Z M 401.648438 589.824219 C 401.378906 589.824219 401.121094 589.875 400.871094 589.976562 C 400.625 590.082031 400.40625 590.226562 400.214844 590.417969 C 400.023438 590.609375 399.878906 590.828125 399.777344 591.074219 C 399.671875 591.324219 399.621094 591.582031 399.621094 591.851562 C 399.621094 592.121094 399.675781 592.378906 399.777344 592.628906 C 399.878906 592.875 400.027344 593.09375 400.21875 593.285156 C 400.40625 593.476562 400.628906 593.621094 400.875 593.722656 C 401.125 593.828125 401.382812 593.878906 401.652344 593.878906 C 401.921875 593.875 402.179688 593.824219 402.429688 593.722656 C 402.675781 593.617188 402.894531 593.472656 403.085938 593.28125 C 403.273438 593.089844 403.421875 592.871094 403.523438 592.621094 C 403.625 592.371094 403.675781 592.113281 403.675781 591.84375 C 403.675781 591.578125 403.625 591.320312 403.519531 591.070312 C 403.417969 590.824219 403.269531 590.605469 403.082031 590.414062 C 402.890625 590.226562 402.671875 590.078125 402.421875 589.976562 C 402.175781 589.875 401.917969 589.824219 401.648438 589.824219 Z M 423.089844 589.824219 C 422.824219 589.824219 422.5625 589.875 422.316406 589.976562 C 422.066406 590.082031 421.847656 590.226562 421.65625 590.417969 C 421.46875 590.609375 421.320312 590.828125 421.21875 591.074219 C 421.117188 591.324219 421.0625 591.582031 421.0625 591.851562 C 421.066406 592.121094 421.117188 592.378906 421.21875 592.628906 C 421.324219 592.875 421.46875 593.09375 421.660156 593.285156 C 421.851562 593.476562 422.070312 593.621094 422.320312 593.722656 C 422.566406 593.828125 422.824219 593.878906 423.09375 593.878906 C 423.363281 593.875 423.621094 593.824219 423.871094 593.722656 C 424.117188 593.617188 424.339844 593.472656 424.527344 593.28125 C 424.71875 593.089844 424.863281 592.871094 424.964844 592.621094 C 425.070312 592.371094 425.121094 592.113281 425.117188 591.84375 C 425.117188 591.578125 425.066406 591.320312 424.960938 591.070312 C 424.859375 590.824219 424.714844 590.605469 424.523438 590.414062 C 424.332031 590.226562 424.113281 590.078125 423.867188 589.976562 C 423.617188 589.875 423.359375 589.824219 423.089844 589.824219 Z M 444.535156 589.824219 C 444.265625 589.820312 444.003906 589.871094 443.753906 589.96875 C 443.503906 590.070312 443.285156 590.214844 443.089844 590.40625 C 442.898438 590.59375 442.75 590.8125 442.644531 591.0625 C 442.539062 591.308594 442.488281 591.570312 442.484375 591.839844 C 442.484375 592.109375 442.535156 592.367188 442.636719 592.617188 C 442.738281 592.867188 442.882812 593.085938 443.074219 593.277344 C 443.265625 593.46875 443.484375 593.617188 443.730469 593.722656 C 443.980469 593.824219 444.238281 593.875 444.507812 593.878906 C 444.777344 593.878906 445.039062 593.828125 445.289062 593.722656 C 445.535156 593.621094 445.757812 593.472656 445.945312 593.28125 C 446.136719 593.09375 446.285156 592.871094 446.386719 592.625 C 446.488281 592.375 446.539062 592.113281 446.539062 591.84375 C 446.539062 591.578125 446.488281 591.320312 446.386719 591.074219 C 446.285156 590.828125 446.140625 590.613281 445.953125 590.421875 C 445.765625 590.234375 445.546875 590.085938 445.300781 589.984375 C 445.054688 589.878906 444.800781 589.824219 444.535156 589.824219 Z M 251.5625 610.558594 C 251.292969 610.558594 251.035156 610.609375 250.785156 610.714844 C 250.539062 610.816406 250.316406 610.960938 250.128906 611.152344 C 249.9375 611.339844 249.789062 611.5625 249.6875 611.808594 C 249.582031 612.058594 249.53125 612.316406 249.53125 612.585938 C 249.53125 612.855469 249.582031 613.113281 249.683594 613.363281 C 249.789062 613.609375 249.933594 613.832031 250.125 614.019531 C 250.316406 614.210938 250.535156 614.359375 250.785156 614.460938 C 251.03125 614.5625 251.289062 614.613281 251.558594 614.613281 C 251.828125 614.613281 252.089844 614.5625 252.335938 614.460938 C 252.585938 614.355469 252.804688 614.210938 252.992188 614.019531 C 253.183594 613.828125 253.332031 613.609375 253.433594 613.359375 C 253.535156 613.109375 253.585938 612.851562 253.585938 612.582031 C 253.582031 612.316406 253.53125 612.058594 253.425781 611.8125 C 253.324219 611.566406 253.175781 611.347656 252.988281 611.160156 C 252.796875 610.972656 252.582031 610.828125 252.335938 610.726562 C 252.085938 610.621094 251.832031 610.570312 251.5625 610.570312 Z M 273.003906 610.558594 C 272.738281 610.558594 272.476562 610.609375 272.230469 610.714844 C 271.980469 610.816406 271.761719 610.960938 271.570312 611.152344 C 271.378906 611.339844 271.234375 611.558594 271.128906 611.808594 C 271.027344 612.054688 270.972656 612.316406 270.972656 612.585938 C 270.972656 612.851562 271.023438 613.113281 271.125 613.359375 C 271.230469 613.609375 271.375 613.828125 271.566406 614.019531 C 271.753906 614.210938 271.972656 614.355469 272.222656 614.460938 C 272.472656 614.5625 272.730469 614.613281 273 614.613281 C 273.269531 614.613281 273.527344 614.5625 273.773438 614.460938 C 274.023438 614.359375 274.242188 614.210938 274.433594 614.023438 C 274.625 613.832031 274.769531 613.613281 274.875 613.363281 C 274.976562 613.113281 275.027344 612.855469 275.027344 612.585938 C 275.027344 612.320312 274.972656 612.0625 274.871094 611.816406 C 274.769531 611.570312 274.621094 611.351562 274.433594 611.164062 C 274.242188 610.972656 274.023438 610.828125 273.777344 610.726562 C 273.53125 610.625 273.273438 610.570312 273.003906 610.570312 Z M 294.441406 610.558594 C 294.175781 610.558594 293.914062 610.613281 293.667969 610.714844 C 293.417969 610.816406 293.199219 610.964844 293.007812 611.15625 C 292.820312 611.34375 292.671875 611.566406 292.570312 611.8125 C 292.46875 612.0625 292.414062 612.320312 292.414062 612.589844 C 292.417969 612.859375 292.46875 613.117188 292.570312 613.367188 C 292.675781 613.613281 292.820312 613.832031 293.011719 614.023438 C 293.203125 614.210938 293.421875 614.359375 293.671875 614.460938 C 293.917969 614.5625 294.175781 614.613281 294.445312 614.613281 C 294.714844 614.613281 294.972656 614.5625 295.222656 614.457031 C 295.46875 614.355469 295.691406 614.207031 295.878906 614.019531 C 296.070312 613.828125 296.214844 613.609375 296.316406 613.359375 C 296.417969 613.109375 296.46875 612.851562 296.46875 612.582031 C 296.46875 612.316406 296.414062 612.058594 296.3125 611.8125 C 296.207031 611.566406 296.0625 611.347656 295.871094 611.160156 C 295.679688 610.96875 295.460938 610.824219 295.214844 610.722656 C 294.96875 610.621094 294.710938 610.570312 294.441406 610.570312 Z M 315.886719 610.558594 C 315.617188 610.558594 315.359375 610.613281 315.109375 610.714844 C 314.859375 610.816406 314.640625 610.964844 314.453125 611.152344 C 314.261719 611.34375 314.117188 611.5625 314.011719 611.8125 C 313.910156 612.058594 313.859375 612.320312 313.859375 612.585938 C 313.859375 612.855469 313.910156 613.113281 314.011719 613.363281 C 314.117188 613.613281 314.261719 613.832031 314.453125 614.019531 C 314.640625 614.210938 314.859375 614.359375 315.109375 614.460938 C 315.359375 614.5625 315.617188 614.613281 315.886719 614.613281 C 316.152344 614.613281 316.414062 614.5625 316.660156 614.460938 C 316.910156 614.359375 317.128906 614.210938 317.320312 614.019531 C 317.507812 613.832031 317.65625 613.613281 317.757812 613.363281 C 317.859375 613.113281 317.914062 612.855469 317.914062 612.585938 C 317.910156 612.320312 317.859375 612.0625 317.757812 611.816406 C 317.652344 611.570312 317.507812 611.351562 317.320312 611.164062 C 317.128906 610.976562 316.914062 610.828125 316.664062 610.726562 C 316.417969 610.625 316.164062 610.570312 315.894531 610.570312 Z M 337.328125 610.558594 C 337.058594 610.558594 336.800781 610.613281 336.550781 610.714844 C 336.304688 610.816406 336.085938 610.964844 335.894531 611.152344 C 335.703125 611.34375 335.558594 611.5625 335.453125 611.8125 C 335.351562 612.058594 335.300781 612.320312 335.300781 612.585938 C 335.300781 612.855469 335.351562 613.113281 335.453125 613.363281 C 335.558594 613.613281 335.703125 613.832031 335.894531 614.019531 C 336.085938 614.210938 336.304688 614.359375 336.550781 614.460938 C 336.800781 614.5625 337.058594 614.613281 337.328125 614.613281 C 337.597656 614.613281 337.855469 614.5625 338.101562 614.460938 C 338.351562 614.359375 338.570312 614.210938 338.761719 614.019531 C 338.949219 613.832031 339.097656 613.613281 339.199219 613.363281 C 339.304688 613.113281 339.355469 612.855469 339.355469 612.585938 C 339.351562 612.320312 339.300781 612.0625 339.199219 611.816406 C 339.09375 611.566406 338.945312 611.351562 338.757812 611.160156 C 338.566406 610.972656 338.347656 610.828125 338.101562 610.722656 C 337.851562 610.621094 337.59375 610.570312 337.328125 610.570312 Z M 358.769531 610.558594 C 358.5 610.558594 358.242188 610.609375 357.992188 610.714844 C 357.746094 610.816406 357.523438 610.960938 357.335938 611.152344 C 357.144531 611.339844 356.996094 611.558594 356.894531 611.808594 C 356.789062 612.054688 356.738281 612.316406 356.738281 612.585938 C 356.738281 612.851562 356.789062 613.113281 356.890625 613.359375 C 356.992188 613.609375 357.140625 613.828125 357.328125 614.019531 C 357.519531 614.210938 357.738281 614.355469 357.988281 614.460938 C 358.234375 614.5625 358.492188 614.613281 358.761719 614.613281 C 359.03125 614.613281 359.289062 614.5625 359.539062 614.460938 C 359.789062 614.359375 360.007812 614.210938 360.199219 614.023438 C 360.386719 613.832031 360.535156 613.613281 360.636719 613.363281 C 360.738281 613.113281 360.792969 612.855469 360.792969 612.585938 C 360.789062 612.320312 360.738281 612.0625 360.636719 611.816406 C 360.53125 611.570312 360.386719 611.351562 360.195312 611.164062 C 360.007812 610.972656 359.789062 610.828125 359.542969 610.726562 C 359.292969 610.625 359.039062 610.570312 358.769531 610.570312 Z M 380.210938 610.558594 C 379.945312 610.5625 379.6875 610.617188 379.4375 610.71875 C 379.191406 610.824219 378.972656 610.972656 378.785156 611.164062 C 378.597656 611.355469 378.449219 611.574219 378.351562 611.824219 C 378.25 612.074219 378.199219 612.332031 378.199219 612.597656 C 378.203125 612.867188 378.253906 613.125 378.359375 613.375 C 378.464844 613.621094 378.609375 613.839844 378.800781 614.027344 C 378.992188 614.21875 379.210938 614.363281 379.460938 614.464844 C 379.710938 614.566406 379.96875 614.617188 380.234375 614.613281 C 380.503906 614.613281 380.761719 614.5625 381.011719 614.457031 C 381.257812 614.355469 381.476562 614.207031 381.664062 614.015625 C 381.855469 613.824219 382 613.605469 382.101562 613.359375 C 382.203125 613.109375 382.253906 612.851562 382.253906 612.582031 C 382.253906 612.3125 382.199219 612.054688 382.09375 611.808594 C 381.988281 611.558594 381.839844 611.34375 381.648438 611.152344 C 381.457031 610.964844 381.238281 610.820312 380.988281 610.71875 C 380.738281 610.617188 380.480469 610.570312 380.210938 610.570312 Z M 401.648438 610.558594 C 401.378906 610.558594 401.121094 610.613281 400.875 610.714844 C 400.625 610.816406 400.40625 610.964844 400.214844 611.152344 C 400.027344 611.34375 399.878906 611.5625 399.777344 611.8125 C 399.671875 612.058594 399.621094 612.320312 399.621094 612.585938 C 399.621094 612.855469 399.671875 613.113281 399.777344 613.363281 C 399.878906 613.613281 400.027344 613.832031 400.214844 614.019531 C 400.40625 614.210938 400.625 614.359375 400.875 614.460938 C 401.121094 614.5625 401.378906 614.613281 401.648438 614.613281 C 401.917969 614.613281 402.175781 614.5625 402.425781 614.460938 C 402.671875 614.359375 402.890625 614.210938 403.082031 614.019531 C 403.273438 613.832031 403.417969 613.613281 403.523438 613.363281 C 403.625 613.113281 403.675781 612.855469 403.675781 612.585938 C 403.675781 612.320312 403.621094 612.0625 403.519531 611.816406 C 403.414062 611.566406 403.269531 611.351562 403.078125 611.160156 C 402.890625 610.972656 402.671875 610.828125 402.421875 610.722656 C 402.175781 610.621094 401.917969 610.570312 401.648438 610.570312 Z M 423.089844 610.558594 C 422.824219 610.558594 422.5625 610.613281 422.316406 610.714844 C 422.066406 610.816406 421.847656 610.964844 421.65625 611.152344 C 421.46875 611.34375 421.320312 611.5625 421.21875 611.8125 C 421.117188 612.058594 421.0625 612.320312 421.0625 612.585938 C 421.0625 612.855469 421.117188 613.113281 421.21875 613.363281 C 421.320312 613.613281 421.46875 613.832031 421.65625 614.019531 C 421.847656 614.210938 422.066406 614.359375 422.316406 614.460938 C 422.5625 614.5625 422.824219 614.613281 423.089844 614.613281 C 423.359375 614.613281 423.617188 614.5625 423.867188 614.460938 C 424.117188 614.359375 424.335938 614.210938 424.523438 614.019531 C 424.714844 613.832031 424.863281 613.613281 424.964844 613.363281 C 425.066406 613.113281 425.117188 612.855469 425.117188 612.585938 C 425.117188 612.320312 425.066406 612.0625 424.960938 611.816406 C 424.859375 611.566406 424.710938 611.351562 424.519531 611.160156 C 424.332031 610.972656 424.113281 610.828125 423.863281 610.722656 C 423.617188 610.621094 423.359375 610.570312 423.089844 610.570312 Z M 444.535156 610.558594 C 444.265625 610.558594 444.003906 610.605469 443.753906 610.707031 C 443.503906 610.808594 443.285156 610.953125 443.089844 611.140625 C 442.898438 611.332031 442.75 611.550781 442.644531 611.796875 C 442.539062 612.046875 442.488281 612.304688 442.484375 612.574219 C 442.484375 612.84375 442.535156 613.105469 442.636719 613.355469 C 442.738281 613.601562 442.882812 613.824219 443.074219 614.015625 C 443.265625 614.207031 443.484375 614.355469 443.730469 614.457031 C 443.980469 614.5625 444.238281 614.613281 444.507812 614.613281 C 444.777344 614.613281 445.039062 614.5625 445.289062 614.460938 C 445.535156 614.359375 445.757812 614.210938 445.945312 614.019531 C 446.136719 613.828125 446.285156 613.609375 446.386719 613.359375 C 446.488281 613.109375 446.539062 612.851562 446.539062 612.582031 C 446.539062 612.316406 446.484375 612.0625 446.382812 611.816406 C 446.28125 611.570312 446.136719 611.355469 445.949219 611.167969 C 445.761719 610.976562 445.542969 610.832031 445.300781 610.730469 C 445.054688 610.625 444.800781 610.574219 444.535156 610.570312 Z M 444.535156 610.558594 " fill-opacity="1" fill-rule="nonzero"/></g><path fill="#ffffff" d="M 6.4375 6.585938 C 6.4375 6.820312 6.394531 7.050781 6.300781 7.269531 C 6.210938 7.488281 6.082031 7.683594 5.914062 7.851562 C 5.746094 8.019531 5.550781 8.148438 5.332031 8.238281 C 5.113281 8.332031 4.882812 8.375 4.644531 8.375 C 4.410156 8.375 4.179688 8.332031 3.960938 8.238281 C 3.742188 8.148438 3.546875 8.019531 3.378906 7.851562 C 3.210938 7.683594 3.082031 7.488281 2.988281 7.269531 C 2.898438 7.050781 2.851562 6.820312 2.851562 6.585938 C 2.851562 6.347656 2.898438 6.117188 2.988281 5.898438 C 3.082031 5.679688 3.210938 5.484375 3.378906 5.316406 C 3.546875 5.148438 3.742188 5.019531 3.960938 4.929688 C 4.179688 4.835938 4.410156 4.792969 4.644531 4.792969 C 4.882812 4.792969 5.113281 4.835938 5.332031 4.929688 C 5.550781 5.019531 5.746094 5.148438 5.914062 5.316406 C 6.082031 5.484375 6.210938 5.679688 6.300781 5.898438 C 6.394531 6.117188 6.4375 6.347656 6.4375 6.585938 Z M 6.4375 6.585938 " fill-opacity="1" fill-rule="nonzero"/><path fill="#ffffff" d="M 19.5625 6.585938 C 19.5625 6.820312 19.515625 7.050781 19.425781 7.269531 C 19.335938 7.488281 19.203125 7.683594 19.035156 7.851562 C 18.867188 8.019531 18.675781 8.148438 18.457031 8.238281 C 18.234375 8.332031 18.007812 8.375 17.769531 8.375 C 17.53125 8.375 17.304688 8.332031 17.082031 8.238281 C 16.863281 8.148438 16.667969 8.019531 16.5 7.851562 C 16.332031 7.683594 16.203125 7.488281 16.113281 7.269531 C 16.023438 7.050781 15.976562 6.820312 15.976562 6.585938 C 15.976562 6.347656 16.023438 6.117188 16.113281 5.898438 C 16.203125 5.679688 16.332031 5.484375 16.5 5.316406 C 16.667969 5.148438 16.863281 5.019531 17.082031 4.929688 C 17.304688 4.835938 17.53125 4.792969 17.769531 4.792969 C 18.007812 4.792969 18.234375 4.835938 18.457031 4.929688 C 18.675781 5.019531 18.867188 5.148438 19.035156 5.316406 C 19.203125 5.484375 19.335938 5.679688 19.425781 5.898438 C 19.515625 6.117188 19.5625 6.347656 19.5625 6.585938 Z M 19.5625 6.585938 " fill-opacity="1" fill-rule="nonzero"/><path fill="#ffffff" d="M 32.683594 6.585938 C 32.683594 6.820312 32.640625 7.050781 32.546875 7.269531 C 32.457031 7.488281 32.328125 7.683594 32.160156 7.851562 C 31.992188 8.019531 31.796875 8.148438 31.578125 8.238281 C 31.359375 8.332031 31.128906 8.375 30.894531 8.375 C 30.65625 8.375 30.425781 8.332031 30.207031 8.238281 C 29.988281 8.148438 29.792969 8.019531 29.625 7.851562 C 29.457031 7.683594 29.328125 7.488281 29.238281 7.269531 C 29.144531 7.050781 29.101562 6.820312 29.101562 6.585938 C 29.101562 6.347656 29.144531 6.117188 29.238281 5.898438 C 29.328125 5.679688 29.457031 5.484375 29.625 5.316406 C 29.792969 5.148438 29.988281 5.019531 30.207031 4.929688 C 30.425781 4.835938 30.65625 4.792969 30.894531 4.792969 C 31.128906 4.792969 31.359375 4.835938 31.578125 4.929688 C 31.796875 5.019531 31.992188 5.148438 32.160156 5.316406 C 32.328125 5.484375 32.457031 5.679688 32.546875 5.898438 C 32.640625 6.117188 32.683594 6.347656 32.683594 6.585938 Z M 32.683594 6.585938 " fill-opacity="1" fill-rule="nonzero"/><path fill="#ffffff" d="M 45.785156 6.585938 C 45.785156 6.820312 45.742188 7.050781 45.648438 7.269531 C 45.558594 7.488281 45.429688 7.683594 45.261719 7.851562 C 45.09375 8.019531 44.898438 8.148438 44.679688 8.238281 C 44.460938 8.332031 44.230469 8.375 43.992188 8.375 C 43.753906 8.375 43.527344 8.332031 43.308594 8.238281 C 43.085938 8.148438 42.894531 8.019531 42.726562 7.851562 C 42.558594 7.683594 42.429688 7.488281 42.335938 7.269531 C 42.246094 7.050781 42.199219 6.820312 42.199219 6.585938 C 42.199219 6.347656 42.246094 6.117188 42.335938 5.898438 C 42.429688 5.679688 42.558594 5.484375 42.726562 5.316406 C 42.894531 5.148438 43.085938 5.019531 43.308594 4.929688 C 43.527344 4.835938 43.753906 4.792969 43.992188 4.792969 C 44.230469 4.792969 44.460938 4.835938 44.679688 4.929688 C 44.898438 5.019531 45.09375 5.148438 45.261719 5.316406 C 45.429688 5.484375 45.558594 5.679688 45.648438 5.898438 C 45.742188 6.117188 45.785156 6.347656 45.785156 6.585938 Z M 45.785156 6.585938 " fill-opacity="1" fill-rule="nonzero"/><path fill="#ffffff" d="M 58.933594 6.585938 C 58.933594 6.820312 58.886719 7.050781 58.796875 7.269531 C 58.703125 7.488281 58.574219 7.683594 58.40625 7.851562 C 58.238281 8.019531 58.042969 8.148438 57.824219 8.238281 C 57.605469 8.332031 57.375 8.375 57.140625 8.375 C 56.902344 8.375 56.671875 8.332031 56.453125 8.238281 C 56.234375 8.148438 56.039062 8.019531 55.871094 7.851562 C 55.703125 7.683594 55.574219 7.488281 55.484375 7.269531 C 55.390625 7.050781 55.347656 6.820312 55.347656 6.585938 C 55.347656 6.347656 55.390625 6.117188 55.484375 5.898438 C 55.574219 5.679688 55.703125 5.484375 55.871094 5.316406 C 56.039062 5.148438 56.234375 5.019531 56.453125 4.929688 C 56.671875 4.835938 56.902344 4.792969 57.140625 4.792969 C 57.375 4.792969 57.605469 4.835938 57.824219 4.929688 C 58.042969 5.019531 58.238281 5.148438 58.40625 5.316406 C 58.574219 5.484375 58.703125 5.679688 58.796875 5.898438 C 58.886719 6.117188 58.933594 6.347656 58.933594 6.585938 Z M 58.933594 6.585938 " fill-opacity="1" fill-rule="nonzero"/><path fill="#ffffff" d="M 72.054688 6.585938 C 72.054688 6.820312 72.007812 7.050781 71.917969 7.269531 C 71.828125 7.488281 71.699219 7.683594 71.53125 7.851562 C 71.363281 8.019531 71.167969 8.148438 70.949219 8.238281 C 70.730469 8.332031 70.5 8.375 70.261719 8.375 C 70.023438 8.375 69.796875 8.332031 69.578125 8.238281 C 69.355469 8.148438 69.164062 8.019531 68.996094 7.851562 C 68.828125 7.683594 68.699219 7.488281 68.605469 7.269531 C 68.515625 7.050781 68.46875 6.820312 68.46875 6.585938 C 68.46875 6.347656 68.515625 6.117188 68.605469 5.898438 C 68.699219 5.679688 68.828125 5.484375 68.996094 5.316406 C 69.164062 5.148438 69.355469 5.019531 69.578125 4.929688 C 69.796875 4.835938 70.023438 4.792969 70.261719 4.792969 C 70.5 4.792969 70.730469 4.835938 70.949219 4.929688 C 71.167969 5.019531 71.363281 5.148438 71.53125 5.316406 C 71.699219 5.484375 71.828125 5.679688 71.917969 5.898438 C 72.007812 6.117188 72.054688 6.347656 72.054688 6.585938 Z M 72.054688 6.585938 " fill-opacity="1" fill-rule="nonzero"/><g clip-path="url(#f8e12c374a)"><path fill="#ffffff" d="M 85.179688 6.585938 C 85.179688 6.820312 85.132812 7.050781 85.042969 7.269531 C 84.949219 7.488281 84.820312 7.683594 84.652344 7.851562 C 84.484375 8.019531 84.292969 8.148438 84.070312 8.238281 C 83.851562 8.332031 83.625 8.375 83.386719 8.375 C 83.148438 8.375 82.917969 8.332031 82.699219 8.238281 C 82.480469 8.148438 82.285156 8.019531 82.117188 7.851562 C 81.949219 7.683594 81.820312 7.488281 81.730469 7.269531 C 81.636719 7.050781 81.59375 6.820312 81.59375 6.585938 C 81.59375 6.347656 81.636719 6.117188 81.730469 5.898438 C 81.820312 5.679688 81.949219 5.484375 82.117188 5.316406 C 82.285156 5.148438 82.480469 5.019531 82.699219 4.929688 C 82.917969 4.835938 83.148438 4.792969 83.386719 4.792969 C 83.625 4.792969 83.851562 4.835938 84.070312 4.929688 C 84.292969 5.019531 84.484375 5.148438 84.652344 5.316406 C 84.820312 5.484375 84.949219 5.679688 85.042969 5.898438 C 85.132812 6.117188 85.179688 6.347656 85.179688 6.585938 Z M 85.179688 6.585938 " fill-opacity="1" fill-rule="nonzero"/></g><path fill="#ffffff" d="M 6.4375 19.945312 C 6.4375 20.183594 6.394531 20.410156 6.300781 20.628906 C 6.210938 20.851562 6.082031 21.042969 5.914062 21.210938 C 5.746094 21.378906 5.550781 21.507812 5.332031 21.601562 C 5.113281 21.691406 4.882812 21.738281 4.644531 21.738281 C 4.410156 21.738281 4.179688 21.691406 3.960938 21.601562 C 3.742188 21.507812 3.546875 21.378906 3.378906 21.210938 C 3.210938 21.042969 3.082031 20.851562 2.988281 20.628906 C 2.898438 20.410156 2.851562 20.183594 2.851562 19.945312 C 2.851562 19.707031 2.898438 19.476562 2.988281 19.257812 C 3.082031 19.039062 3.210938 18.84375 3.378906 18.675781 C 3.546875 18.507812 3.742188 18.378906 3.960938 18.289062 C 4.179688 18.195312 4.410156 18.152344 4.644531 18.152344 C 4.882812 18.152344 5.113281 18.195312 5.332031 18.289062 C 5.550781 18.378906 5.746094 18.507812 5.914062 18.675781 C 6.082031 18.84375 6.210938 19.039062 6.300781 19.257812 C 6.394531 19.476562 6.4375 19.707031 6.4375 19.945312 Z M 6.4375 19.945312 " fill-opacity="1" fill-rule="nonzero"/><path fill="#ffffff" d="M 19.5625 19.945312 C 19.5625 20.183594 19.515625 20.410156 19.425781 20.628906 C 19.335938 20.851562 19.203125 21.042969 19.035156 21.210938 C 18.867188 21.378906 18.675781 21.507812 18.457031 21.601562 C 18.234375 21.691406 18.007812 21.738281 17.769531 21.738281 C 17.53125 21.738281 17.304688 21.691406 17.082031 21.601562 C 16.863281 21.507812 16.667969 21.378906 16.5 21.210938 C 16.332031 21.042969 16.203125 20.851562 16.113281 20.628906 C 16.023438 20.410156 15.976562 20.183594 15.976562 19.945312 C 15.976562 19.707031 16.023438 19.476562 16.113281 19.257812 C 16.203125 19.039062 16.332031 18.84375 16.5 18.675781 C 16.667969 18.507812 16.863281 18.378906 17.082031 18.289062 C 17.304688 18.195312 17.53125 18.152344 17.769531 18.152344 C 18.007812 18.152344 18.234375 18.195312 18.457031 18.289062 C 18.675781 18.378906 18.867188 18.507812 19.035156 18.675781 C 19.203125 18.84375 19.335938 19.039062 19.425781 19.257812 C 19.515625 19.476562 19.5625 19.707031 19.5625 19.945312 Z M 19.5625 19.945312 " fill-opacity="1" fill-rule="nonzero"/><path fill="#ffffff" d="M 32.683594 19.945312 C 32.683594 20.183594 32.640625 20.410156 32.546875 20.628906 C 32.457031 20.851562 32.328125 21.042969 32.160156 21.210938 C 31.992188 21.378906 31.796875 21.507812 31.578125 21.601562 C 31.359375 21.691406 31.128906 21.738281 30.894531 21.738281 C 30.65625 21.738281 30.425781 21.691406 30.207031 21.601562 C 29.988281 21.507812 29.792969 21.378906 29.625 21.210938 C 29.457031 21.042969 29.328125 20.851562 29.238281 20.628906 C 29.144531 20.410156 29.101562 20.183594 29.101562 19.945312 C 29.101562 19.707031 29.144531 19.476562 29.238281 19.257812 C 29.328125 19.039062 29.457031 18.84375 29.625 18.675781 C 29.792969 18.507812 29.988281 18.378906 30.207031 18.289062 C 30.425781 18.195312 30.65625 18.152344 30.894531 18.152344 C 31.128906 18.152344 31.359375 18.195312 31.578125 18.289062 C 31.796875 18.378906 31.992188 18.507812 32.160156 18.675781 C 32.328125 18.84375 32.457031 19.039062 32.546875 19.257812 C 32.640625 19.476562 32.683594 19.707031 32.683594 19.945312 Z M 32.683594 19.945312 " fill-opacity="1" fill-rule="nonzero"/><path fill="#ffffff" d="M 45.785156 19.945312 C 45.785156 20.183594 45.742188 20.410156 45.648438 20.628906 C 45.558594 20.851562 45.429688 21.042969 45.261719 21.210938 C 45.09375 21.378906 44.898438 21.507812 44.679688 21.601562 C 44.460938 21.691406 44.230469 21.738281 43.992188 21.738281 C 43.753906 21.738281 43.527344 21.691406 43.308594 21.601562 C 43.085938 21.507812 42.894531 21.378906 42.726562 21.210938 C 42.558594 21.042969 42.429688 20.851562 42.335938 20.628906 C 42.246094 20.410156 42.199219 20.183594 42.199219 19.945312 C 42.199219 19.707031 42.246094 19.476562 42.335938 19.257812 C 42.429688 19.039062 42.558594 18.84375 42.726562 18.675781 C 42.894531 18.507812 43.085938 18.378906 43.308594 18.289062 C 43.527344 18.195312 43.753906 18.152344 43.992188 18.152344 C 44.230469 18.152344 44.460938 18.195312 44.679688 18.289062 C 44.898438 18.378906 45.09375 18.507812 45.261719 18.675781 C 45.429688 18.84375 45.558594 19.039062 45.648438 19.257812 C 45.742188 19.476562 45.785156 19.707031 45.785156 19.945312 Z M 45.785156 19.945312 " fill-opacity="1" fill-rule="nonzero"/><path fill="#ffffff" d="M 58.933594 19.945312 C 58.933594 20.183594 58.886719 20.410156 58.796875 20.628906 C 58.703125 20.851562 58.574219 21.042969 58.40625 21.210938 C 58.238281 21.378906 58.042969 21.507812 57.824219 21.601562 C 57.605469 21.691406 57.375 21.738281 57.140625 21.738281 C 56.902344 21.738281 56.671875 21.691406 56.453125 21.601562 C 56.234375 21.507812 56.039062 21.378906 55.871094 21.210938 C 55.703125 21.042969 55.574219 20.851562 55.484375 20.628906 C 55.390625 20.410156 55.347656 20.183594 55.347656 19.945312 C 55.347656 19.707031 55.390625 19.476562 55.484375 19.257812 C 55.574219 19.039062 55.703125 18.84375 55.871094 18.675781 C 56.039062 18.507812 56.234375 18.378906 56.453125 18.289062 C 56.671875 18.195312 56.902344 18.152344 57.140625 18.152344 C 57.375 18.152344 57.605469 18.195312 57.824219 18.289062 C 58.042969 18.378906 58.238281 18.507812 58.40625 18.675781 C 58.574219 18.84375 58.703125 19.039062 58.796875 19.257812 C 58.886719 19.476562 58.933594 19.707031 58.933594 19.945312 Z M 58.933594 19.945312 " fill-opacity="1" fill-rule="nonzero"/><path fill="#ffffff" d="M 72.054688 19.945312 C 72.054688 20.183594 72.007812 20.410156 71.917969 20.628906 C 71.828125 20.851562 71.699219 21.042969 71.53125 21.210938 C 71.363281 21.378906 71.167969 21.507812 70.949219 21.601562 C 70.730469 21.691406 70.5 21.738281 70.261719 21.738281 C 70.023438 21.738281 69.796875 21.691406 69.578125 21.601562 C 69.355469 21.507812 69.164062 21.378906 68.996094 21.210938 C 68.828125 21.042969 68.699219 20.851562 68.605469 20.628906 C 68.515625 20.410156 68.46875 20.183594 68.46875 19.945312 C 68.46875 19.707031 68.515625 19.476562 68.605469 19.257812 C 68.699219 19.039062 68.828125 18.84375 68.996094 18.675781 C 69.164062 18.507812 69.355469 18.378906 69.578125 18.289062 C 69.796875 18.195312 70.023438 18.152344 70.261719 18.152344 C 70.5 18.152344 70.730469 18.195312 70.949219 18.289062 C 71.167969 18.378906 71.363281 18.507812 71.53125 18.675781 C 71.699219 18.84375 71.828125 19.039062 71.917969 19.257812 C 72.007812 19.476562 72.054688 19.707031 72.054688 19.945312 Z M 72.054688 19.945312 " fill-opacity="1" fill-rule="nonzero"/><g clip-path="url(#7a03e35fb1)"><path fill="#ffffff" d="M 85.179688 19.945312 C 85.179688 20.183594 85.132812 20.410156 85.042969 20.628906 C 84.949219 20.851562 84.820312 21.042969 84.652344 21.210938 C 84.484375 21.378906 84.292969 21.507812 84.070312 21.601562 C 83.851562 21.691406 83.625 21.738281 83.386719 21.738281 C 83.148438 21.738281 82.917969 21.691406 82.699219 21.601562 C 82.480469 21.507812 82.285156 21.378906 82.117188 21.210938 C 81.949219 21.042969 81.820312 20.851562 81.730469 20.628906 C 81.636719 20.410156 81.59375 20.183594 81.59375 19.945312 C 81.59375 19.707031 81.636719 19.476562 81.730469 19.257812 C 81.820312 19.039062 81.949219 18.84375 82.117188 18.675781 C 82.285156 18.507812 82.480469 18.378906 82.699219 18.289062 C 82.917969 18.195312 83.148438 18.152344 83.386719 18.152344 C 83.625 18.152344 83.851562 18.195312 84.070312 18.289062 C 84.292969 18.378906 84.484375 18.507812 84.652344 18.675781 C 84.820312 18.84375 84.949219 19.039062 85.042969 19.257812 C 85.132812 19.476562 85.179688 19.707031 85.179688 19.945312 Z M 85.179688 19.945312 " fill-opacity="1" fill-rule="nonzero"/></g><g clip-path="url(#072a70f1e7)"><path fill="#004aad" d="M 96.082031 92.128906 L 201.359375 92.128906 L 234.335938 35.015625 C 234.683594 34.410156 235.3125 34.074219 235.957031 34.074219 L 235.957031 34.066406 L 399.925781 34.066406 C 400.457031 34.066406 400.933594 34.28125 401.277344 34.636719 L 455.601562 88.957031 L 912.46875 88.957031 C 913.507812 88.957031 914.351562 89.800781 914.351562 90.839844 C 914.351562 91.878906 913.507812 92.722656 912.46875 92.722656 L 454.824219 92.722656 C 454.34375 92.722656 453.859375 92.539062 453.496094 92.171875 L 399.152344 37.828125 L 237.039062 37.828125 L 204.152344 94.789062 C 203.855469 95.4375 203.203125 95.890625 202.441406 95.890625 L 96.085938 95.890625 C 95.132812 106.4375 86.273438 114.699219 75.480469 114.699219 C 64.054688 114.699219 54.792969 105.433594 54.792969 94.011719 C 54.792969 82.582031 64.058594 73.324219 75.480469 73.324219 C 86.273438 73.324219 95.132812 81.585938 96.085938 92.132812 Z M 241.703125 25.828125 C 240.664062 25.828125 239.820312 24.988281 239.820312 23.949219 C 239.820312 22.910156 240.664062 22.066406 241.703125 22.066406 L 280.730469 22.066406 C 281.769531 22.066406 282.609375 22.910156 282.609375 23.949219 C 282.609375 24.988281 281.769531 25.828125 280.730469 25.828125 Z M 352.441406 51.925781 C 351.402344 51.925781 350.558594 51.082031 350.558594 50.046875 C 350.558594 49.007812 351.402344 48.164062 352.441406 48.164062 L 391.234375 48.164062 C 391.765625 48.164062 392.242188 48.382812 392.585938 48.734375 L 430.183594 86.332031 C 430.917969 87.0625 430.917969 88.257812 430.183594 88.992188 C 429.449219 89.726562 428.257812 89.726562 427.523438 88.992188 L 390.457031 51.921875 L 352.445312 51.921875 Z M 608.460938 36.792969 L 595.386719 36.792969 L 617.96875 75.910156 L 631.042969 75.910156 Z M 480.71875 36.792969 L 467.644531 36.792969 L 490.226562 75.910156 L 503.300781 75.910156 Z M 506.265625 36.792969 L 493.191406 36.792969 L 515.773438 75.910156 L 528.847656 75.910156 Z M 531.816406 36.792969 L 518.738281 36.792969 L 541.320312 75.910156 L 554.398438 75.910156 Z M 557.363281 36.792969 L 544.285156 36.792969 L 566.871094 75.910156 L 579.945312 75.910156 Z M 582.910156 36.792969 L 569.835938 36.792969 L 592.417969 75.910156 L 605.492188 75.910156 Z M 582.910156 36.792969 " fill-opacity="1" fill-rule="nonzero"/></g></svg>